<?xml version="1.0" standalone="no"?>
<!DOCTYPE svg PUBLIC "-//W3C//DTD SVG 20010904//EN"
 "http://www.w3.org/TR/2001/REC-SVG-20010904/DTD/svg10.dtd">
<svg version="1.0" xmlns="http://www.w3.org/2000/svg"
 width="512.000000pt" height="512.000000pt" viewBox="0 0 512.000000 512.000000"
 preserveAspectRatio="xMidYMid meet">
<metadata>
Created by potrace 1.14, written by Peter Selinger 2001-2017
</metadata>
<g transform="translate(0.000000,512.000000) scale(0.100000,-0.100000)"
fill="#000000" stroke="none">
<path d="M2262 4624 c-32 -8 -92 -68 -92 -93 0 -32 42 -27 78 9 69 69 191 15
168 -73 -5 -23 -69 -87 -159 -160 -66 -54 -100 -115 -101 -185 l-1 -57 175 0
175 0 0 30 0 30 -142 3 c-100 2 -143 6 -143 14 0 6 9 31 21 55 15 32 46 63
117 117 54 41 105 88 115 104 36 63 14 157 -45 188 -32 17 -125 26 -166 18z"/>
<path d="M3410 4618 c-33 -13 -80 -67 -80 -94 0 -26 51 -15 81 17 27 29 33 31
80 27 60 -6 83 -26 83 -73 0 -59 -63 -105 -146 -105 -23 0 -28 -5 -28 -24 0
-21 6 -24 57 -31 73 -9 108 -27 128 -65 19 -37 19 -73 0 -110 -20 -39 -43 -50
-104 -50 -50 0 -91 23 -91 50 0 12 -57 14 -64 2 -3 -5 3 -24 12 -43 52 -103
250 -90 309 21 43 82 21 165 -56 209 l-42 23 30 19 c37 22 71 74 71 107 0 39
-31 92 -63 109 -40 20 -134 26 -177 11z"/>
<path d="M1073 4585 c-47 -21 -53 -27 -53 -54 0 -17 2 -31 5 -31 2 0 27 9 55
20 l50 20 0 -241 0 -240 33 3 32 3 3 273 2 272 -37 -1 c-21 0 -62 -11 -90 -24z"/>
<path d="M4608 4449 c-100 -124 -128 -166 -128 -189 l0 -30 130 0 130 0 0 -86
0 -85 33 3 32 3 3 83 3 82 34 0 c32 0 35 2 35 30 0 28 -3 30 -35 30 l-35 0 0
160 0 160 -37 -1 c-37 0 -42 -6 -165 -160z m129 -156 c-3 -2 -43 -3 -91 -1
l-86 3 87 111 88 111 3 -110 c1 -60 1 -111 -1 -114z"/>
<path d="M3500 3780 c-20 -20 -20 -31 -20 -580 l0 -560 -249 0 -248 0 -5 331
c-4 308 -6 333 -23 345 -24 18 -30 18 -51 -3 -16 -16 -16 -43 -10 -345 l7
-328 -260 0 -261 0 -2 566 c-3 527 -4 568 -20 578 -13 8 -23 8 -35 0 -17 -10
-18 -51 -21 -578 l-2 -566 -254 0 -253 0 -2 326 c-1 179 -4 331 -7 339 -8 20
-33 26 -55 15 -18 -10 -19 -25 -19 -345 l0 -335 -257 0 -256 0 6 557 c4 359 3
563 -4 575 -13 24 -55 23 -69 -1 -6 -13 -10 -211 -10 -575 l0 -556 -249 0
-248 0 -5 329 c-5 343 -7 361 -48 361 -42 0 -43 -14 -36 -360 l7 -330 -270 0
-271 0 0 -85 0 -85 703 0 704 0 6 -217 c4 -120 7 -271 7 -335 0 -107 2 -118
20 -128 14 -8 26 -8 40 0 21 11 21 17 18 346 l-3 334 702 0 703 0 2 -556 c3
-518 4 -558 21 -568 12 -8 22 -8 35 0 16 10 17 50 20 568 l2 556 705 0 705 0
0 -361 c0 -229 4 -367 10 -380 13 -23 55 -25 68 -3 5 8 7 178 4 380 l-5 364
327 0 326 0 0 85 0 85 -192 0 -191 0 6 557 c4 359 3 563 -4 575 -13 24 -55 23
-69 -1 -6 -13 -10 -211 -10 -575 l0 -556 -254 0 -253 0 -2 326 c-1 179 -4 331
-7 339 -8 20 -33 26 -55 15 -18 -10 -19 -25 -19 -345 l0 -335 -257 0 -256 0 5
558 c3 306 4 563 1 570 -3 7 -13 17 -24 22 -14 8 -23 6 -39 -10z"/>
<path d="M2851 931 c-44 -23 -55 -33 -56 -55 -1 -30 9 -32 58 -11 20 8 41 15
47 15 6 0 10 -80 10 -235 l0 -235 30 0 30 0 0 275 0 275 -32 0 c-18 -1 -57
-14 -87 -29z"/>
<path d="M744 881 c-82 -38 -126 -120 -126 -241 0 -92 19 -146 67 -196 88 -91
257 -83 322 15 34 50 30 61 -21 61 -38 0 -45 -3 -50 -24 -12 -48 -114 -60
-170 -20 -42 31 -60 80 -60 164 -1 90 23 144 74 172 61 32 151 15 163 -32 4
-16 13 -20 46 -20 34 0 41 3 41 19 0 29 -49 81 -95 102 -52 24 -138 24 -191 0z"/>
<path d="M1295 884 c-16 -9 -42 -30 -57 -47 l-28 -31 0 42 0 42 -40 0 -40 0 0
-250 0 -250 39 0 39 0 4 158 c3 126 7 164 22 194 30 62 105 95 156 68 32 -17
40 -67 40 -246 l0 -174 39 0 39 0 4 158 c3 128 7 164 23 196 30 63 103 94 155
66 31 -16 40 -75 40 -252 l0 -168 40 0 40 0 0 198 c0 168 -3 202 -18 232 -22
45 -75 80 -120 80 -49 0 -117 -35 -140 -71 l-19 -31 -21 37 c-36 60 -130 83
-197 49z"/>
</g>
</svg>
